<svg width="40" height="40" viewBox="0 0 40 40" fill="none" xmlns="http://www.w3.org/2000/svg">
<path d="M26 36V32.6067C32.4198 32.0825 37.3561 26.7078 37.3333 20.2667V13.1C37.3263 6.9725 32.3608 2.007 26.2333 2H15.3333V0H6V8H8V12.6667H8.66667V16.6667H12.6667V12.6667H13.3333V8H15.3333V6H26.2333C30.1529 6.00408 33.3293 9.18042 33.3333 13.1V20.2667C33.3265 24.8207 29.6939 28.5408 25.1413 28.656C24.2708 27.4133 22.8506 26.6713 21.3333 26.6667H18.6667C17.5448 26.6699 16.4614 27.0761 15.614 27.8113C13.7983 26.7311 12.6802 24.7794 12.6667 22.6667V22H20V18H1.33333V22H8.66667V22.6667C8.67783 26.3702 10.7281 29.7663 14 31.5013V36H0V40H40V36H26ZM11.3333 15.3333H10V12.6667H11.3333V15.3333ZM12 11.3333H9.33333V8H12V11.3333ZM14 6.66667H7.33333V1.33333H14V6.66667ZM34.6667 20.2667V13.1C34.6612 8.44467 30.8887 4.67217 26.2333 4.66667H15.3333V3.33333H26.2333C31.6248 3.33958 35.9938 7.70858 36 13.1V20.2667C36.0231 25.9745 31.6834 30.755 26 31.2827C26 31.216 25.9873 31.1547 25.984 31.09C25.9767 30.9467 25.9687 30.8027 25.9487 30.6613C25.9367 30.58 25.916 30.5007 25.9 30.42C25.8747 30.2907 25.848 30.1613 25.812 30.0353C25.8047 30.0113 25.802 29.986 25.7947 29.962C30.8138 29.5098 34.6604 25.3061 34.6667 20.2667ZM2.66667 20.6667V19.3333H18.6667V20.6667H2.66667ZM10 22.6667V22H11.3333V22.6667C11.3479 25.1664 12.6278 27.4887 14.7333 28.836C14.6993 28.8907 14.6593 28.9433 14.6293 28.998C14.4336 29.3349 14.2808 29.6951 14.1747 30.07C11.5903 28.4962 10.0093 25.6925 10 22.6667ZM38.6667 38.6667H1.33333V37.3333H15.3333V31.3333C15.3333 31.272 15.3333 31.2153 15.3393 31.1333C15.3675 30.6114 15.5222 30.1042 15.79 29.6553C15.9046 29.4504 16.0441 29.2606 16.2053 29.09C16.8371 28.3983 17.7298 28.0029 18.6667 28H21.3333C22.5248 28.0022 23.6248 28.6394 24.2193 29.672C24.5162 30.1751 24.6708 30.7493 24.6667 31.3333V37.3333H38.6667V38.6667Z" fill="#FFB229"/>
<path d="M19.9997 28.667C18.5269 28.667 17.333 29.8609 17.333 31.3337C17.333 32.8064 18.5269 34.0003 19.9997 34.0003C21.4724 34.0003 22.6663 32.8064 22.6663 31.3337C22.6663 29.8609 21.4724 28.667 19.9997 28.667ZM19.9997 32.667C19.2633 32.667 18.6663 32.0701 18.6663 31.3337C18.6663 30.5972 19.2633 30.0003 19.9997 30.0003C20.7361 30.0003 21.333 30.5972 21.333 31.3337C21.333 32.0701 20.7361 32.667 19.9997 32.667Z" fill="#FFB229"/>
</svg>
