<svg width="40" height="40" viewBox="0 0 40 40" fill="none" xmlns="http://www.w3.org/2000/svg">
<path d="M10.625 35.625H16.875V36.875H10.625V35.625Z" fill="#FFB229"/>
<path d="M26.25 23.125C26.25 23.125 26.2506 23.125 26.25 23.125C26.8363 23.9044 27.7594 24.375 28.75 24.375C30.4731 24.375 31.875 22.9731 31.875 21.25C31.875 19.9781 31.1062 18.8556 29.9619 18.3744C29.7875 17.52 29.03 16.875 28.125 16.875C27.0912 16.875 26.25 17.7162 26.25 18.75C26.25 18.9744 26.2962 19.1875 26.3687 19.3869C26.3287 19.3844 26.2906 19.375 26.25 19.375C25.2162 19.375 24.375 20.2162 24.375 21.25C24.375 22.2838 25.2162 23.125 26.25 23.125ZM30.625 21.25C30.625 22.2838 29.7838 23.125 28.75 23.125C28.2806 23.125 27.8431 22.9394 27.5038 22.6344C27.8825 22.2913 28.125 21.8 28.125 21.25C28.125 21.0256 28.0788 20.8125 28.0063 20.6131C28.0463 20.6156 28.0844 20.625 28.125 20.625C28.8244 20.625 29.4281 20.2356 29.7506 19.6662C30.2831 20.0031 30.625 20.5931 30.625 21.25ZM28.125 18.125C28.47 18.125 28.75 18.4056 28.75 18.75C28.75 19.0944 28.47 19.375 28.125 19.375C27.78 19.375 27.5 19.0944 27.5 18.75C27.5 18.4056 27.78 18.125 28.125 18.125ZM26.25 20.625C26.595 20.625 26.875 20.905 26.875 21.25C26.875 21.595 26.595 21.875 26.25 21.875C25.905 21.875 25.625 21.595 25.625 21.25C25.625 20.905 25.905 20.625 26.25 20.625Z" fill="#FFB229"/>
<path d="M38.125 34.375C38.8144 34.375 39.375 33.8144 39.375 33.125V13.125C39.375 12.4356 38.8144 11.875 38.125 11.875H22.9681C22.6225 10.6556 22.1306 9.48063 21.5081 8.39625C21.6244 8.30188 21.7369 8.20125 21.8444 8.09375C22.67 7.26813 23.125 6.17125 23.125 4.99813C23.125 2.58688 21.1631 0.625 18.7519 0.625H15.0962C9.87375 0.625 5.625 4.87375 5.625 10.0969C5.625 13.3844 7.28875 16.3869 10.0763 18.1287L10.625 18.4719V21.3675C4.8 22.7025 0.625 27.9025 0.625 33.9238V39.375H39.375V38.125H26.875V34.375H38.125ZM26.8406 33.125C26.76 31.8175 26.4844 30.5575 26.0369 29.375H38.125V33.125H26.8406ZM22.6475 13.125H38.125V28.125H25.4831C25.2656 27.695 25.03 27.2763 24.7675 26.875H36.875V14.375H21.875V13.5112L22.6475 13.125ZM16.875 21.3675V19.375H18.125C18.5637 19.375 18.9831 19.295 19.375 19.1562V22.23C18.5825 21.8656 17.7506 21.5681 16.875 21.3675ZM20.625 18.4125C21.39 17.7256 21.875 16.7325 21.875 15.625H24.3913C22.8675 16.7656 21.875 18.5794 21.875 20.625C21.875 22.6706 22.8675 24.4844 24.3913 25.625H23.8313C22.9244 24.55 21.8444 23.6238 20.625 22.89V18.4125ZM33.125 20.625C33.125 23.3819 30.8819 25.625 28.125 25.625C25.3681 25.625 23.125 23.3819 23.125 20.625C23.125 17.8681 25.3681 15.625 28.125 15.625C30.8819 15.625 33.125 17.8681 33.125 20.625ZM31.8587 15.625H35.625V25.625H31.8587C33.3825 24.4844 34.375 22.6706 34.375 20.625C34.375 18.5794 33.3825 16.7656 31.8587 15.625ZM6.875 10.0969C6.875 5.56313 10.5631 1.875 15.0962 1.875H18.7519C20.4744 1.875 21.875 3.27625 21.875 5.00375C21.875 5.83687 21.55 6.62063 20.9612 7.20937C20.3725 7.7975 19.59 8.12125 18.7581 8.12125C18.7569 8.12125 18.7563 8.12125 18.755 8.12125C18.5456 8.12125 18.3344 8.12063 18.1237 8.12063V8.12C18.1225 8.12 18.1213 8.12 18.1206 8.12C17.7887 8.12 17.4762 7.99062 17.2413 7.75625C17.005 7.52125 16.875 7.20688 16.875 6.8725C16.875 6.185 17.435 5.625 18.1225 5.625V4.375C16.7456 4.375 15.625 5.495 15.625 6.8725C15.625 7.31938 15.7506 7.74312 15.9694 8.11938C15.29 8.11938 14.7175 8.11937 14.3737 8.12C14.3725 8.12 14.3713 8.12 14.3706 8.12C14.0387 8.12 13.7263 7.99062 13.4913 7.75625C13.255 7.52125 13.125 7.20688 13.125 6.8725C13.125 6.185 13.685 5.625 14.3725 5.625H14.375L14.3725 4.375C13.1237 4.375 12.0956 5.29875 11.9131 6.4975C11.1119 7.02875 10.625 7.9175 10.625 8.8975V9.38312C9.22875 9.48938 8.125 10.66 8.125 12.0837C8.125 12.9312 8.52938 13.7412 9.20813 14.25L10.625 15.3125V16.9869C8.2775 15.4644 6.875 12.9031 6.875 10.0969ZM1.875 33.9238C1.875 28.3294 5.86625 23.52 11.3656 22.4887L11.875 22.3938V14.6875L9.95875 13.25C9.59313 12.9763 9.375 12.54 9.375 12.0831C9.375 11.2794 10.0294 10.625 10.8331 10.625H11.875V8.8975C11.875 8.56687 11.9775 8.2575 12.1525 7.995C12.2712 8.22937 12.4175 8.45062 12.6087 8.64187C13.08 9.11187 13.705 9.37062 14.3706 9.37062H14.3763C15.14 9.37 16.995 9.37 18.7537 9.37187H18.7581C19.345 9.37187 19.9144 9.25625 20.4406 9.03687C20.9906 9.99562 21.4463 11.0588 21.7644 12.17L20.625 12.7388V14.375H16.25C14.5269 14.375 13.125 15.7769 13.125 17.5V24.5981C11.9525 25.0325 11.0619 26.0631 10.8438 27.3612C10.7331 28.0175 10.31 28.58 9.71125 28.8681L7.85563 29.7606C7.26 30.0475 6.875 30.6606 6.875 31.3212C6.875 31.8637 7.13438 32.3819 7.5675 32.7069C7.92438 32.9744 8.3025 33.2125 8.69687 33.4181C7.625 33.9144 6.875 34.9931 6.875 36.25C6.875 36.9562 7.11938 37.6012 7.51625 38.125H5.625V30.625H4.375V38.125H1.875V33.9238ZM14.375 33.125H12.5712C11.0475 33.125 9.53687 32.6213 8.3175 31.7062C8.19687 31.6162 8.125 31.4719 8.125 31.3212C8.125 31.1369 8.2325 30.9662 8.39875 30.8862L10.2537 29.9944C11.2169 29.5306 11.8988 28.6244 12.0769 27.5688C12.19 26.895 12.585 26.3363 13.1256 25.9925V28.75C13.1256 29.7838 12.2844 30.625 11.2506 30.625H10.6256V31.875H11.2506C12.9737 31.875 14.3756 30.4731 14.3756 28.75V25.625C16.4437 25.625 18.1256 27.3069 18.1256 29.375C18.1256 31.4431 16.4431 33.125 14.375 33.125ZM10 38.125C8.96625 38.125 8.125 37.2837 8.125 36.25C8.125 35.2163 8.96625 34.375 10 34.375H17.5C18.5338 34.375 19.375 35.2163 19.375 36.25C19.375 37.2837 18.5338 38.125 17.5 38.125H10ZM23.125 38.125V30.625H21.875V38.125H19.9838C20.3806 37.6012 20.625 36.9562 20.625 36.25C20.625 34.58 19.3044 33.2225 17.6537 33.1406C18.7062 32.2231 19.375 30.8769 19.375 29.375C19.375 26.6181 17.1319 24.375 14.375 24.375V17.5C14.375 16.4663 15.2163 15.625 16.25 15.625H20.625C20.625 17.0037 19.5037 18.125 18.125 18.125H15.625V22.3938L16.1344 22.4887C21.6338 23.5206 25.625 28.3294 25.625 33.9238V38.125H23.125Z" fill="#FFB229"/>
<path d="M34.375 30.625H35.625V31.875H34.375V30.625Z" fill="#FFB229"/>
<path d="M31.875 30.625H33.125V31.875H31.875V30.625Z" fill="#FFB229"/>
<path d="M29.375 30.625H30.625V31.875H29.375V30.625Z" fill="#FFB229"/>
</svg>
