<svg width="40" height="40" viewBox="0 0 40 40" fill="none" xmlns="http://www.w3.org/2000/svg">
<path d="M36.9735 8.53161L36.8568 8.37226C35.3955 6.36129 33.0387 5.16129 30.5516 5.16129C29.0071 5.16129 27.5123 5.61419 26.2277 6.47032L24.6574 7.51742C24.4374 7.66452 24.1806 7.74194 23.9161 7.74194C23.18 7.74194 22.5806 7.14258 22.5806 6.40645V1.93548C22.5806 0.605161 20.4071 0 18.3871 0C16.3671 0 14.1935 0.605806 14.1935 1.93548V7.63742C14.1935 9.06 14.4213 10.4665 14.8723 11.8174C15.2781 13.0361 15.4839 14.3052 15.4839 15.5884V15.751C15.4839 18.6084 14.0961 21.3045 11.771 22.9652C11.5329 23.1355 11.251 23.2258 10.9568 23.2258H9.87935C9.50516 23.2258 9.15355 23.08 8.88903 22.8155C7.90581 21.8323 6.59806 21.2903 5.2071 21.2903C2.33613 21.2903 0 23.6264 0 26.4974V38.0645C0 39.1677 1.38645 40 3.22581 40C5.06516 40 6.45161 39.1677 6.45161 38.0645V33.8084C6.45161 33.4026 6.61613 33.0058 6.9129 32.709C7.33097 32.291 7.97032 32.149 8.52839 32.3503L9.95548 32.869C13.5484 34.1761 17.309 34.8387 21.1323 34.8387C23.4535 34.8387 25.7368 34.4368 27.9168 33.6432L28.2387 33.5258C30.7045 32.629 32.9355 31.2755 34.869 29.5032C38.1303 26.5148 40 22.2632 40 17.8387C40 14.4729 38.9535 11.2542 36.9735 8.53161ZM18.3871 1.29032C20.0452 1.29032 21.0206 1.70774 21.2555 1.93548C21.0206 2.16323 20.0452 2.58065 18.3871 2.58065C16.729 2.58065 15.7535 2.16323 15.5187 1.93548C15.7535 1.70774 16.729 1.29032 18.3871 1.29032ZM3.22581 38.7097C1.97677 38.7097 1.29032 38.2252 1.29032 38.0645C1.29032 37.9039 1.97677 37.4194 3.22581 37.4194C4.47419 37.4194 5.16129 37.9039 5.16129 38.0645C5.16129 38.2252 4.47419 38.7097 3.22581 38.7097ZM33.9968 28.5523C32.1884 30.2097 30.1032 31.4755 27.7981 32.3135L27.4761 32.431C25.4368 33.1723 23.3026 33.5484 21.1323 33.5484C17.46 33.5484 13.8477 32.9123 10.3961 31.6568L8.96903 31.1374C7.94258 30.7658 6.7729 31.0232 5.99032 31.8064C5.46387 32.3335 5.16129 33.0632 5.16129 33.8084V36.5026C4.62839 36.269 3.9671 36.129 3.22581 36.129C2.48452 36.129 1.82323 36.269 1.29032 36.5026V26.4974C1.29032 24.3381 3.04774 22.5806 5.2071 22.5806C6.2529 22.5806 7.23677 22.9884 7.97677 23.7277C8.48516 24.2361 9.16064 24.5161 9.87935 24.5161H10.9568C11.5219 24.5161 12.0626 24.3426 12.5213 24.0148C15.1845 22.1129 16.7742 19.0239 16.7742 15.751V15.5884C16.7742 14.1658 16.5458 12.7594 16.0955 11.4084C15.6897 10.1897 15.4839 8.92064 15.4839 7.63742V3.38C16.2858 3.71161 17.3555 3.87097 18.3871 3.87097C19.4187 3.87097 20.4884 3.71161 21.2903 3.38V6.40581C21.2903 7.85355 22.4684 9.03161 23.9161 9.03161C24.4368 9.03161 24.94 8.87935 25.3729 8.59032L26.9439 7.54323C28.0155 6.82968 29.2632 6.45161 30.5516 6.45161C32.6264 6.45161 34.5935 7.45355 35.8129 9.13097L35.9297 9.29032C37.7484 11.791 38.7097 14.7471 38.7097 17.8387C38.7097 21.9019 36.9923 25.8071 33.9968 28.5523Z" fill="#FFB229"/>
<path d="M35.9511 19.8887C35.4982 22.4777 34.1853 24.879 32.2537 26.6493C30.6982 28.0758 28.9027 29.1648 26.9182 29.8874L26.5943 30.0054C25.6743 30.3396 24.7227 30.59 23.7646 30.75L23.9776 32.0229C25.0124 31.85 26.0408 31.579 27.0343 31.2183L27.3582 31.1003C29.5034 30.3196 31.4434 29.1422 33.1246 27.6009C35.2646 25.639 36.7195 22.979 37.2214 20.1106L35.9511 19.8887Z" fill="#FFB229"/>
<path d="M21.2842 30.9672L21.2971 32.2575C21.7435 32.253 22.1945 32.2311 22.6371 32.1924L22.5248 30.9072C22.1151 30.9427 21.6977 30.9627 21.2842 30.9672Z" fill="#FFB229"/>
</svg>
