<svg width="40" height="40" viewBox="0 0 40 40" fill="none" xmlns="http://www.w3.org/2000/svg">
<path d="M19.9998 3.4043C14.5893 3.4043 10.1875 7.80608 10.1875 13.2166C10.1875 18.6272 14.5893 23.0289 19.9998 23.0289C25.4104 23.0289 29.8121 18.6271 29.8121 13.2166C29.8121 7.80617 25.4104 3.4043 19.9998 3.4043ZM19.9998 21.7523C15.2932 21.7523 11.4641 17.9232 11.4641 13.2166C11.4641 8.51008 15.2932 4.68089 19.9998 4.68089C24.7065 4.68089 28.5355 8.51 28.5355 13.2166C28.5355 17.9233 24.7065 21.7523 19.9998 21.7523Z" fill="#FFB229"/>
<path d="M19.9997 0C12.7121 0 6.7832 5.92894 6.7832 13.2165C6.7832 16.4342 7.95316 19.5347 10.0775 21.9469C12.0583 24.1961 14.7334 25.7016 17.6594 26.2254V30.2379H13.1998C12.8473 30.2379 12.5615 30.5237 12.5615 30.8762V34.2804C12.5615 34.6329 12.8473 34.9187 13.1998 34.9187H17.6594V39.3617C17.6594 39.7142 17.9452 40 18.2977 40H21.7019C22.0544 40 22.3402 39.7142 22.3402 39.3617V34.9187H26.7998C27.1523 34.9187 27.4381 34.6329 27.4381 34.2804V30.8762C27.4381 30.5237 27.1523 30.2379 26.7998 30.2379H22.3402V26.2254C24.5389 25.8319 26.6058 24.8826 28.3482 23.4614C28.6213 23.2386 28.6622 22.8365 28.4394 22.5633C28.2165 22.2902 27.8144 22.2494 27.5412 22.4722C25.8361 23.8631 23.7873 24.7534 21.6163 25.0472C21.2998 25.09 21.0636 25.3603 21.0636 25.6797V30.8762C21.0636 31.2287 21.3494 31.5145 21.7019 31.5145H26.1615V33.6421H21.7018C21.3493 33.6421 21.0635 33.9279 21.0635 34.2804V38.7234H18.9359V34.2804C18.9359 33.9279 18.6501 33.6421 18.2976 33.6421H13.838V31.5145H18.2976C18.6501 31.5145 18.9359 31.2287 18.9359 30.8762V25.6797C18.9359 25.3603 18.6997 25.09 18.3832 25.0472C12.4978 24.251 8.0598 19.1649 8.0598 13.2165C8.0598 6.63285 13.4161 1.2766 19.9997 1.2766C26.5834 1.2766 31.9396 6.63285 31.9396 13.2165C31.9396 15.9586 30.9864 18.6369 29.2556 20.7581C29.0327 21.0312 29.0735 21.4334 29.3466 21.6563C29.6197 21.8791 30.0218 21.8384 30.2447 21.5653C32.1609 19.2169 33.2162 16.252 33.2162 13.2166C33.2162 5.92894 27.2873 0 19.9997 0Z" fill="#FFB229"/>
</svg>
