<svg width="40" height="40" viewBox="0 0 40 40" fill="none" xmlns="http://www.w3.org/2000/svg">
<path d="M24.3083 20.0016L21.1139 16.8081L4.30585 0L2.81575 1.49737C-0.335763 4.64889 2.41171 11.8214 5.101 14.5075L15.1665 24.5721L17.4517 22.2869L19.737 24.5729L18.5943 25.7156L32.8796 40L38.5935 34.2869L24.3083 20.0016ZM15.1665 22.2869L6.24363 13.3648C4.82262 11.7844 3.8205 9.87293 3.32888 7.80525C2.75595 5.49414 2.98626 3.6105 3.95838 2.63758L4.30908 2.28525L19.737 17.7164L19.1656 18.2877L8.88121 8.00162L7.73777 9.14424L18.023 19.4303L15.1665 22.2869ZM18.5943 21.1442L20.8796 18.859L23.1656 21.1442L20.8796 23.4303L18.5943 21.1442ZM20.8796 25.7156L24.3083 22.2869L29.059 27.0376H22.2016L20.8796 25.7156ZM23.8178 28.6537H30.6751L33.9075 31.8861H27.0501L23.8178 28.6537ZM28.6671 33.5022H35.5236L36.3083 34.2869L32.8796 37.7147L28.6671 33.5022Z" fill="#FFB229"/>
<path d="M6.59592 5.71659L5.45312 6.85938L6.59592 8.00216L7.73871 6.85938L6.59592 5.71659Z" fill="#FFB229"/>
</svg>
