<svg width="40" height="40" viewBox="0 0 40 40" fill="none" xmlns="http://www.w3.org/2000/svg">
<g clip-path="url(#clip0)">
<path d="M36.9316 0.046875H36.2937C35.0188 0.0476241 33.9853 1.08058 33.9838 2.35551L33.9784 18.0358C33.9793 18.5663 33.7681 19.075 33.3918 19.4488L29.3192 23.5167L28.4043 22.5998C28.1443 22.3398 28.1443 21.9183 28.4043 21.6582L31.4008 18.6657C31.4014 18.6651 31.4022 18.6643 31.4029 18.6637C32.6107 17.4547 32.6098 15.4954 31.4008 14.2875C31.0275 13.9107 30.5188 13.6995 29.9884 13.7009C29.4576 13.6985 28.948 13.9088 28.5734 14.2849L22.5638 20.2872C21.7627 21.0829 20.666 22.1736 20.666 23.4468V39.3342C20.666 39.7019 20.9642 40.0001 21.3319 40.0001H29.3225C29.6903 40.0001 29.9884 39.7019 29.9884 39.3342L29.9831 31.2184C29.9817 30.6927 30.1922 30.1886 30.5671 29.82L37.9464 22.5046C38.391 22.06 38.6421 21.4579 38.645 20.8292L38.6563 1.77352C38.6563 1.77327 38.6563 1.7731 38.6563 1.77285C38.6566 0.81997 37.8845 0.0472079 36.9316 0.046875ZM37.3132 20.8272C37.3119 21.102 37.2023 21.3652 37.0082 21.5597L29.6302 28.8745C29.0065 29.4948 28.6547 30.3374 28.652 31.217L28.6567 38.6683H21.9978V23.4475C21.9985 22.7277 22.8681 21.8627 23.5027 21.2314L29.513 15.2284C29.773 14.9685 30.1945 14.9685 30.4546 15.2284C31.1427 15.918 31.1427 17.0346 30.4546 17.7242L27.4581 20.716C27.458 20.7161 27.4579 20.7162 27.4578 20.7163C26.6777 21.4964 26.6778 22.7613 27.4581 23.5414L28.8471 24.9291C28.972 25.0539 29.1413 25.1242 29.3179 25.1242C29.4945 25.1242 29.6638 25.0539 29.7887 24.9291L34.33 20.3911C34.9563 19.768 35.3078 18.9205 35.3062 18.0371L35.3155 2.35684C35.3163 1.81689 35.7538 1.3794 36.2937 1.37865H36.931C37.1483 1.37865 37.3245 1.55486 37.3245 1.77219L37.3132 20.8272Z" fill="#FFB229"/>
<path d="M17.4369 20.2898L11.4239 14.2855C11.0505 13.9097 10.5421 13.6991 10.0123 13.7009C9.48397 13.6996 8.97698 13.9094 8.60392 14.2835C7.39691 15.4936 7.39691 17.4523 8.60392 18.6624L11.6004 21.6589C11.8599 21.9188 11.8599 22.3399 11.6004 22.5998L10.6855 23.5167L6.61225 19.4475C6.2386 19.0725 6.02802 18.5652 6.02627 18.0358L6.01694 2.35551C6.01362 1.0805 4.97991 0.04829 3.70498 0.046875H3.0684C2.11635 0.0505374 1.34591 0.822134 1.34375 1.77419L1.35574 20.8285C1.35748 21.4578 1.60902 22.0606 2.05492 22.5046L9.43361 29.818C9.80851 30.1866 10.019 30.6907 10.0176 31.2164L10.0123 39.3342C10.0123 39.7019 10.3104 40.0001 10.6782 40.0001H18.6688C19.0365 40.0001 19.3347 39.7019 19.3347 39.3342V23.4481C19.334 22.1763 18.236 21.0889 17.4369 20.2898ZM18.0029 38.6683H11.344L11.3494 31.2164C11.3465 30.337 10.9947 29.4946 10.3712 28.8745L2.99182 21.5604C2.79713 21.3663 2.68759 21.1028 2.68751 20.8279L2.67552 1.77352C2.67586 1.55586 2.85207 1.3794 3.06973 1.37865H3.70565C4.24577 1.3794 4.68367 1.81672 4.68517 2.35684L4.69449 18.0371C4.69749 18.9193 5.04825 19.7646 5.67068 20.3897L10.216 24.9291C10.3409 25.0539 10.5102 25.1242 10.6868 25.1242C10.8634 25.1242 11.0327 25.0539 11.1576 24.9291L12.542 23.5427C13.3218 22.7626 13.3218 21.4981 12.542 20.718L9.54548 17.7255C8.8572 17.0357 8.8572 15.919 9.54548 15.2291C9.66967 15.1035 9.83897 15.033 10.0156 15.0333C10.1922 15.0329 10.3616 15.1034 10.4857 15.2291L16.498 21.2314C17.1326 21.8627 18.0029 22.7277 18.0029 23.4461V38.6683Z" fill="#FFB229"/>
<path d="M28.542 1.5603C26.4616 -0.520099 23.0886 -0.520099 21.0082 1.5603L20.0673 2.5012L19.1264 1.5603C17.046 -0.520099 13.6729 -0.520099 11.5925 1.5603C9.51213 3.6407 9.51213 7.01375 11.5925 9.09414L19.5965 17.0981C19.7213 17.223 19.8907 17.2932 20.0673 17.2932C20.2439 17.2932 20.4132 17.223 20.5381 17.0981L28.542 9.09414C30.6224 7.01366 30.6224 3.6407 28.542 1.5603ZM27.6005 8.15258L20.0673 15.6858L12.5341 8.15258C11.7846 7.40321 11.3635 6.38665 11.3636 5.32672C11.3639 3.12014 13.1529 1.33165 15.3595 1.3319C16.4199 1.32882 17.4374 1.75041 18.1848 2.50253L19.5965 3.91354C19.8565 4.17349 20.278 4.17349 20.5381 3.91354L21.9477 2.50386C23.5076 0.942938 26.0375 0.942022 27.5985 2.50186C29.1594 4.0617 29.1603 6.59157 27.6005 8.15258Z" fill="#FFB229"/>
</g>
<defs>
<clipPath id="clip0">
<rect width="40" height="40" fill="white"/>
</clipPath>
</defs>
</svg>
