<svg width="40" height="40" viewBox="0 0 40 40" fill="none" xmlns="http://www.w3.org/2000/svg">
<g clip-path="url(#clip0)">
<path d="M36.6041 23.4962C37.321 22.5963 37.4434 21.3124 36.8485 20.2811C36.3391 19.3999 35.3899 18.8526 34.3718 18.8526C34.2275 18.8526 34.0843 18.8635 33.943 18.885C33.7173 18.3122 33.3105 17.8335 32.7998 17.5108C32.8564 17.1014 32.8852 16.6852 32.8852 16.2683V6.87464C32.8852 4.67964 31.8742 2.67089 30.1116 1.36347C28.3688 0.0707393 26.0867 -0.324104 24.0075 0.306989C19.9594 1.53425 15.6804 1.53261 11.6332 0.302458C9.53086 -0.336526 7.31281 0.0473021 5.54742 1.35574C3.78219 2.66488 2.76922 4.67605 2.76836 6.87378L2.76758 17.8578C2.76672 19.3983 3.60742 20.8032 4.93938 21.5376V24.533C4.93938 25.6499 5.79828 26.5556 6.89523 26.5951C6.91992 26.5959 6.94461 26.5964 6.96922 26.5964C7.49781 26.5964 7.99547 26.3959 8.37727 26.0272C8.77703 25.6413 8.99711 25.1229 8.99711 24.5674V21.5384C9.8675 21.0584 10.5284 20.2917 10.8819 19.3878C11.7309 20.5628 13.1117 21.3299 14.6681 21.3299H14.7596C13.992 22.6494 13.5518 24.1817 13.5518 25.815V30.3251C13.5518 31.288 14.1987 32.1027 15.0807 32.3573V39.414C15.0807 39.7376 15.343 39.9999 15.6666 39.9999C15.9902 39.9999 16.2526 39.7376 16.2526 39.414V31.8539C16.2526 31.5303 15.9902 31.268 15.6666 31.268C15.1467 31.268 14.7237 30.845 14.7237 30.325V25.8149C14.7237 21.5274 18.2118 18.0392 22.4993 18.0392H23.8829C24.8595 18.0392 25.654 17.2447 25.654 16.2681V8.12542C25.654 7.94425 25.5702 7.77323 25.427 7.66229C25.2837 7.55128 25.0972 7.51284 24.9219 7.558C22.6013 8.15581 20.2142 8.45901 17.8267 8.45901C15.4401 8.45901 13.0529 8.15589 10.7316 7.558C10.5561 7.51276 10.3697 7.55136 10.2265 7.66229C10.0834 7.77331 9.99953 7.94425 9.99953 8.12542V12.6464C9.99953 12.97 10.2619 13.2324 10.5855 13.2324C10.9091 13.2324 11.1714 12.97 11.1714 12.6464V11.1408C11.3713 11.1939 11.5548 11.2976 11.7048 11.4475C11.9291 11.6718 12.0527 11.9703 12.0527 12.2878V14.3331C12.0527 15.6349 13.1114 16.6941 14.4128 16.6941C15.0428 16.6941 15.6356 16.4488 16.0826 16.0029C16.5283 15.5573 16.7737 14.9642 16.7737 14.3331V13.0113C16.7737 12.3556 17.3068 11.8222 17.962 11.8222C18.2801 11.8222 18.5788 11.9458 18.8032 12.1701C19.0276 12.3945 19.1511 12.6932 19.1511 13.0113V14.3331C19.1511 15.6349 20.2098 16.6941 21.5112 16.6941C22.1412 16.6941 22.734 16.4488 23.1809 16.0029C23.6267 15.5573 23.8722 14.9642 23.8722 14.3331V12.2878C23.8722 11.8435 24.1177 11.456 24.4823 11.2521V16.2683C24.4823 16.5987 24.2135 16.8675 23.883 16.8675H22.4995C19.7098 16.8675 17.2147 18.151 15.5725 20.1581H14.6683C12.7423 20.1581 11.1734 18.5916 11.1707 16.666V14.9903C11.1707 14.6667 10.9084 14.4043 10.5848 14.4043C10.2612 14.4043 9.99883 14.6667 9.99883 14.9903V17.8586C9.9982 19.0646 9.28312 20.1554 8.17719 20.6374C7.96352 20.7305 7.82539 20.9414 7.82539 21.1745V24.5674C7.82539 24.8021 7.73242 25.0212 7.56352 25.1842C7.39469 25.3471 7.17203 25.4324 6.93711 25.4241C6.4818 25.4077 6.11141 25.008 6.11141 24.5331V21.1738C6.11141 20.9407 5.9732 20.7297 5.75961 20.6367C4.65336 20.1545 3.93898 19.0641 3.93961 17.8583L3.94039 6.87425C3.94109 5.05136 4.78133 3.38308 6.24547 2.29714C7.7093 1.21214 9.54891 0.893786 11.2925 1.42371C15.5624 2.7216 20.0768 2.72332 24.3477 1.42847C26.0739 0.904645 27.9676 1.23222 29.4136 2.3048C30.8752 3.38894 31.7134 5.05464 31.7134 6.8748V16.2684C31.7134 16.5456 31.6973 16.8219 31.6685 17.0957C31.5415 17.0781 31.4124 17.0676 31.2813 17.0676C30.5902 17.0676 29.9226 17.3181 29.4011 17.7735C29.0524 18.0784 28.7854 18.461 28.6194 18.8859C27.4822 18.7155 26.31 19.2516 25.7145 20.282C25.4638 20.7166 25.3314 21.2098 25.3314 21.7082C25.3314 22.3703 25.5543 22.9962 25.9575 23.4974C25.8597 23.6204 25.7741 23.751 25.6988 23.8867C25.1091 24.0275 24.4995 24.0988 23.883 24.0988H22.4995C21.553 24.0988 20.7831 24.8688 20.7831 25.8152V30.3253C20.7831 30.8452 20.3601 31.2683 19.8402 31.2683H19.7784C19.4548 31.2683 19.1925 31.5306 19.1925 31.8542V39.414C19.1925 39.7376 19.4548 39.9999 19.7784 39.9999C20.1021 39.9999 20.3644 39.7376 20.3644 39.414V32.3741C21.2778 32.1404 21.955 31.3103 21.955 30.3251V25.815C21.955 25.5148 22.1993 25.2705 22.4995 25.2705H23.8831C24.3741 25.2705 24.8615 25.2305 25.3406 25.1523C25.3155 25.6833 25.4348 26.2245 25.7148 26.7096C26.224 27.5909 27.1727 28.1384 28.1909 28.1384C28.3358 28.1384 28.4792 28.1276 28.6205 28.1061C29.042 29.1764 30.0921 29.9234 31.2815 29.9234C31.9736 29.9234 32.6414 29.6727 33.1613 29.218C33.5099 28.9137 33.777 28.5316 33.9434 28.1073C34.579 28.2059 35.2328 28.0855 35.8069 27.7533C36.087 27.5913 36.1827 27.2328 36.0206 26.9527C35.8585 26.6727 35.5002 26.577 35.22 26.739C34.7737 26.9971 34.224 27.0374 33.7494 26.8463C33.5825 26.7793 33.3941 26.7924 33.238 26.8823C33.0821 26.9721 32.9761 27.1287 32.9506 27.3068C32.8937 27.7045 32.6948 28.0697 32.3902 28.3356C32.0834 28.6038 31.6896 28.7516 31.2814 28.7516C30.4483 28.7516 29.731 28.1304 29.613 27.3067C29.5875 27.1286 29.4814 26.972 29.3255 26.8822C29.1695 26.7923 28.9809 26.7792 28.814 26.8464C28.6162 26.9261 28.4066 26.9665 28.1908 26.9665C27.5898 26.9665 27.0299 26.6434 26.7295 26.1235C26.313 25.402 26.4923 24.4703 27.1466 23.9562C27.288 23.8451 27.3705 23.6752 27.3705 23.4953C27.3704 23.3155 27.2877 23.1456 27.1463 23.0345C26.7377 22.7138 26.5034 22.2303 26.5034 21.7079C26.5034 21.4147 26.5816 21.1239 26.7294 20.8676C27.1465 20.1459 28.0429 19.8351 28.8148 20.1447C28.9817 20.2117 29.1701 20.1983 29.3259 20.1084C29.4816 20.0185 29.5875 19.862 29.613 19.684C29.6699 19.2865 29.8687 18.9211 30.1723 18.6556C30.4798 18.3871 30.8737 18.2392 31.2814 18.2392C32.1149 18.2392 32.8325 18.8604 32.9506 19.6841C32.9761 19.862 33.0819 20.0184 33.2375 20.1083C33.3931 20.1982 33.5816 20.2117 33.7482 20.145C33.9483 20.065 34.1581 20.0244 34.372 20.0244C34.9731 20.0244 35.5334 20.3475 35.834 20.8671C36.2504 21.589 36.0712 22.5209 35.4171 23.0346C35.2758 23.1456 35.1932 23.3153 35.1931 23.495C35.193 23.6747 35.2754 23.8445 35.4166 23.9557C35.8196 24.2731 36.0602 24.7695 36.0602 25.2836V25.2844C36.0602 25.608 36.3225 25.8699 36.6462 25.8699C36.9698 25.8699 37.2321 25.6072 37.2321 25.2836C37.232 24.6333 37.0042 23.9995 36.6041 23.4962ZM22.7002 12.2878V14.3331C22.7002 14.6512 22.5766 14.9499 22.3527 15.1738C22.1275 15.3985 21.8286 15.5222 21.5111 15.5222C20.8559 15.5222 20.3229 14.9888 20.3229 14.3331V13.0113C20.3229 12.3802 20.0774 11.7872 19.6317 11.3415C19.186 10.8958 18.593 10.6504 17.962 10.6504C16.6606 10.6504 15.6018 11.7095 15.6018 13.0114V14.3332C15.6018 14.6513 15.4782 14.95 15.2544 15.1739C15.0291 15.3985 14.7302 15.5223 14.4127 15.5223C13.7575 15.5223 13.2245 14.9889 13.2245 14.3332V12.2879C13.2245 11.6573 12.979 11.0646 12.5333 10.6189C12.1609 10.2466 11.6856 10.0146 11.1713 9.94815V8.87151C15.5424 9.87987 20.1134 9.87964 24.4821 8.87159V9.99964C23.4593 10.2582 22.7002 11.1859 22.7002 12.2878Z" fill="#FFB229"/>
<path d="M29.3888 23.5159C29.1144 23.6874 29.0309 24.0489 29.2024 24.3233L30.004 25.6058C30.1151 25.7836 30.3061 25.8813 30.5014 25.8813C30.6074 25.8813 30.7148 25.8524 30.8114 25.7921C31.0858 25.6207 31.1693 25.2592 30.9978 24.9847L30.1962 23.7022C30.0246 23.4278 29.6631 23.3444 29.3888 23.5159Z" fill="#FFB229"/>
<path d="M31.4892 22.7745L32.5045 22.0264C32.765 21.8344 32.8206 21.4676 32.6287 21.2071C32.4367 20.9466 32.0701 20.8911 31.8094 21.083L30.794 21.8311C30.5336 22.023 30.478 22.3898 30.6699 22.6504C30.7848 22.8062 30.9623 22.8887 31.1421 22.8887C31.2628 22.8888 31.3845 22.8516 31.4892 22.7745Z" fill="#FFB229"/>
<path d="M32.1948 24.5716L33.21 24.8922C33.2688 24.9107 33.3282 24.9196 33.3867 24.9196C33.6355 24.9196 33.8663 24.7598 33.9452 24.51C34.0427 24.2014 33.8715 23.8722 33.5629 23.7747L32.5477 23.4541C32.2389 23.3567 31.9099 23.5278 31.8125 23.8364C31.7151 24.145 31.8862 24.4742 32.1948 24.5716Z" fill="#FFB229"/>
</g>
<defs>
<clipPath id="clip0">
<rect width="40" height="40" fill="white"/>
</clipPath>
</defs>
</svg>
