<svg width="60" height="60" viewBox="0 0 60 60" fill="none" xmlns="http://www.w3.org/2000/svg">
<g clip-path="url(#clip0)">
<path d="M59.9923 29.999C59.9878 25.5653 57.7222 21.4403 53.9829 19.0579C53.9829 19.0379 53.9939 19.0219 53.9939 19.0019C53.9939 8.70457 44.8373 0.00683594 33.9991 0.00683594C32.4195 0.0112098 30.9358 0.764639 30.0001 2.03731C29.0645 0.764639 27.5808 0.0112098 26.0012 0.00683594C15.163 0.00683594 6.00639 8.70457 6.00639 19.0019C6.00639 19.0219 6.01639 19.0379 6.01739 19.0579C2.27811 21.4403 0.0123282 25.5653 0.0079543 29.999C-0.145256 34.3779 1.92296 38.538 5.50652 41.0591C3.87157 45.7342 6.33606 50.8495 11.0111 52.4844C11.726 52.7345 12.4698 52.8929 13.2245 52.956C14.302 57.8009 19.103 60.8549 23.9478 59.7774C26.5627 59.1958 28.7818 57.4781 30.0001 55.0925C32.2601 59.5113 37.6743 61.2614 42.0931 59.0015C44.4769 57.7823 46.1929 55.5637 46.7738 52.95C51.7092 52.5375 55.3759 48.2022 54.9634 43.2666C54.9003 42.5118 54.7418 41.7681 54.4918 41.0531C58.0742 38.5337 60.143 34.3761 59.9923 29.999ZM29.0004 50.9936C28.996 54.8567 25.8653 57.9874 22.0022 57.9917C18.1372 57.9932 15.0028 54.8613 15.0013 50.9963C15.0003 48.448 16.3846 46.1006 18.6151 44.8681C19.0982 44.6006 19.2731 43.9921 19.0055 43.509C18.738 43.0259 18.1295 42.851 17.6464 43.1186C14.8087 44.6927 13.0374 47.6717 13.0096 50.9166C9.18706 50.3453 6.55138 46.7834 7.1226 42.9609C7.63259 39.5483 10.5538 37.0168 14.0043 36.9972C14.9838 36.997 15.9413 36.7073 16.7566 36.1644L18.7961 38.2039C19.1932 38.5874 19.826 38.5765 20.2097 38.1794C20.5838 37.792 20.5838 37.1778 20.2097 36.7903L18.1702 34.7508C18.7131 33.9355 19.0028 32.978 19.003 31.9985C19.003 31.4464 18.5554 30.9988 18.0033 30.9988C17.4512 30.9988 17.0035 31.4464 17.0035 31.9985C17.0035 33.6549 15.6608 34.9977 14.0043 34.9977C10.8999 35.0012 8.01699 36.6059 6.3783 39.2426C3.50179 37.0581 1.87059 33.6085 2.00743 29.999C2.01456 23.9285 6.93403 19.009 13.0046 19.0019C13.5567 19.0019 14.0043 18.5543 14.0043 18.0021C14.0043 17.45 13.5567 17.0024 13.0046 17.0024C11.3096 17.0022 9.6312 17.3353 8.06486 17.9832C8.6667 9.3634 16.7776 2.00631 26.0012 2.00631C27.6576 2.00631 29.0004 3.34909 29.0004 5.00553V50.9936ZM53.622 39.2426C51.9833 36.6059 49.1004 35.0012 45.996 34.9977C45.4439 34.9977 44.9962 35.4454 44.9962 35.9975C44.9962 36.5496 45.4439 36.9972 45.996 36.9972C49.8608 37.0234 52.9727 40.1779 52.9464 44.0429C52.923 47.4852 50.3995 50.3995 46.9957 50.9146C46.968 47.6697 45.1966 44.6907 42.3589 43.1166C41.8758 42.849 41.2673 43.0239 40.9998 43.507C40.7322 43.9901 40.9071 44.5986 41.3902 44.8661C44.7708 46.7395 45.9926 50.9988 44.1192 54.3794C42.2458 57.76 37.9866 58.9818 34.6059 57.1085C32.3827 55.8764 31.0021 53.5355 30.9999 50.9937V23.001C32.4909 23 33.9276 22.4416 35.0278 21.4354L37.2982 23.7008C37.6954 24.0844 38.3282 24.0734 38.7119 23.6763C39.086 23.2889 39.086 22.6747 38.7119 22.2872L36.2785 19.8538C36.7526 18.9784 37.0002 17.9981 36.9983 17.0025C36.9983 16.4504 36.5507 16.0028 35.9986 16.0028C35.4465 16.0028 34.9988 16.4504 34.9988 17.0025C34.9988 19.2111 33.2084 21.0015 30.9999 21.0015V5.00566C30.9999 3.34922 32.3427 2.00644 33.9991 2.00644C43.2227 2.00644 51.3336 9.36352 51.9354 17.9833C50.3691 17.3354 48.6907 17.0023 46.9957 17.0025C46.4436 17.0025 45.996 17.4502 45.996 18.0023C45.996 18.5544 46.4436 19.002 46.9957 19.002C53.0663 19.0091 57.9857 23.9286 57.9929 29.9991C58.1296 33.6085 56.4985 37.0581 53.622 39.2426Z" fill="#FFB229"/>
<path d="M35.999 3.00586C33.7904 3.00586 32 4.79627 32 7.00482C32 7.55692 32.4476 8.00456 32.9997 8.00456C33.5518 8.00456 33.9995 7.55692 33.9995 7.00482C33.9995 5.90048 34.8946 5.00534 35.999 5.00534C36.5511 5.00534 36.9987 4.55771 36.9987 4.0056C36.9987 3.45349 36.5511 3.00586 35.999 3.00586Z" fill="#FFB229"/>
<path d="M41.9978 8.00586C41.4457 8.00586 40.998 8.45349 40.998 9.0056C40.998 9.55771 41.4457 10.0053 41.9978 10.0053C43.6542 10.0053 44.997 11.3481 44.997 13.0046C44.997 13.5567 45.4446 14.0043 45.9967 14.0043C46.5488 14.0043 46.9965 13.5567 46.9965 13.0046C46.9931 10.2453 44.7571 8.00911 41.9978 8.00586Z" fill="#FFB229"/>
<path d="M39.9969 37.997C38.3404 37.997 36.9977 36.6542 36.9977 34.9978C36.9977 34.4457 36.55 33.998 35.9979 33.998C35.4458 33.998 34.9982 34.4457 34.9982 34.9978C34.9985 35.9773 35.2881 36.9348 35.831 37.7501L33.7915 39.7895C33.3944 40.1732 33.3834 40.806 33.767 41.2032C34.1507 41.6003 34.7835 41.6113 35.1807 41.2277C35.1889 41.2197 35.1971 41.2114 35.2051 41.2032L37.2446 39.1637C38.0599 39.7066 39.0174 39.9962 39.9969 39.9965C40.549 39.9965 40.9966 39.5489 40.9966 38.9967C40.9966 38.4446 40.549 37.997 39.9969 37.997Z" fill="#FFB229"/>
<path d="M37.9987 53.9931C36.3423 53.9931 34.9995 52.6503 34.9995 50.9939C34.9995 50.4418 34.5518 49.9941 33.9997 49.9941C33.4476 49.9941 33 50.4418 33 50.9939C33.0032 53.7532 35.2394 55.9893 37.9987 55.9926C38.5508 55.9926 38.9984 55.545 38.9984 54.9928C38.9984 54.4407 38.5508 53.9931 37.9987 53.9931Z" fill="#FFB229"/>
<path d="M49.703 30.2914L47.1637 27.752C47.7065 26.9367 47.9962 25.9792 47.9965 24.9997C47.9965 24.4476 47.5488 24 46.9967 24C46.4446 24 45.997 24.4476 45.997 24.9997C45.997 26.6562 44.6542 27.999 42.9978 27.999C42.4457 27.999 41.998 28.4466 41.998 28.9987C41.998 29.5508 42.4457 29.9984 42.9978 29.9984C43.9773 29.9982 44.9348 29.7085 45.7501 29.1657L48.2894 31.705C48.6865 32.0886 49.3194 32.0776 49.703 31.6805C50.0772 31.2931 50.0772 30.6788 49.703 30.2914Z" fill="#FFB229"/>
<path d="M24.0017 3.00586C23.4496 3.00586 23.002 3.45349 23.002 4.0056C23.002 4.55771 23.4496 5.00534 24.0017 5.00534C25.106 5.00534 26.0012 5.90048 26.0012 7.00482C26.0012 7.55692 26.4488 8.00456 27.0009 8.00456C27.553 8.00456 28.0007 7.55692 28.0007 7.00482C28.0007 4.79627 26.2102 3.00586 24.0017 3.00586Z" fill="#FFB229"/>
<path d="M12.1495 31.1436C12.1415 31.1352 12.1332 31.1271 12.125 31.1191C10.9542 29.9479 10.9542 28.0494 12.125 26.8782C12.5153 26.4878 12.5153 25.855 12.125 25.4646C11.7346 25.0743 11.1018 25.0743 10.7114 25.4646C10.0168 26.1563 9.54267 27.0382 9.34872 27.9989H6.0056C5.45349 27.9989 5.00586 28.4466 5.00586 28.9987C5.00586 29.5508 5.45349 29.9984 6.0056 29.9984H9.34872C9.54267 30.9592 10.0168 31.8411 10.7114 32.5328C11.095 32.9299 11.7279 32.9409 12.125 32.5573C12.5221 32.1737 12.533 31.5408 12.1495 31.1436Z" fill="#FFB229"/>
<path d="M18.0026 8.00586C15.2433 8.00911 13.0072 10.2453 13.0039 13.0046C13.0039 13.5567 13.4515 14.0043 14.0036 14.0043C14.5557 14.0043 15.0034 13.5567 15.0034 13.0046C15.0034 11.3481 16.3462 10.0053 18.0026 10.0053C18.5547 10.0053 19.0023 9.55771 19.0023 9.0056C19.0023 8.45349 18.5547 8.00586 18.0026 8.00586Z" fill="#FFB229"/>
<path d="M22.0017 46.9941C21.4496 46.9941 21.002 47.4418 21.002 47.9939C21.002 48.546 21.4496 48.9936 22.0017 48.9936C23.6581 48.9936 25.0009 50.3364 25.0009 51.9928C25.0009 52.5449 25.4485 52.9926 26.0007 52.9926C26.5528 52.9926 27.0004 52.5449 27.0004 51.9928C26.997 49.2336 24.761 46.9974 22.0017 46.9941Z" fill="#FFB229"/>
<path d="M25.0023 23.0007C22.7937 23.0007 21.0033 21.2102 21.0033 19.0017C21.0033 18.4496 20.5557 18.002 20.0036 18.002C19.4515 18.002 19.0038 18.4496 19.0038 19.0017C19.0026 19.9982 19.2512 20.9792 19.7267 21.8549L17.2933 24.2883C16.8793 24.6537 16.8399 25.2854 17.2053 25.6995C17.5707 26.1135 18.2024 26.1528 18.6165 25.7874C18.6474 25.7601 18.6767 25.7308 18.7041 25.6999L20.9715 23.4325C22.0722 24.4402 23.5102 24.9994 25.0024 25.0001C25.5545 25.0001 26.0021 24.5525 26.0021 24.0004C26.0021 23.4483 25.5544 23.0007 25.0023 23.0007Z" fill="#FFB229"/>
</g>
<defs>
<clipPath id="clip0">
<rect width="60" height="60" fill="white"/>
</clipPath>
</defs>
</svg>
