<svg width="40" height="40" viewBox="0 0 40 40" fill="none" xmlns="http://www.w3.org/2000/svg">
<g clip-path="url(#clip0)">
<path d="M32.6105 6.80141C30.8785 3.05587 27.4481 1.13832 24.8151 0.594414C18.4673 -0.722652 13.6396 0.153101 10.451 3.18068C5.04744 8.31222 6.41122 17.6675 6.4726 18.0628C6.5326 18.4526 6.90566 18.7237 7.28423 18.6596C7.67401 18.5996 7.94242 18.2357 7.88241 17.8473C7.86799 17.7573 6.57451 8.82613 11.4376 4.21239C14.2678 1.52948 18.6731 0.782664 24.5236 1.99255C26.8162 2.46661 29.8033 4.13728 31.3123 7.4012C33.2158 11.5214 32.2771 17.2521 28.5957 23.9757C27.5903 25.8149 27.2095 27.3489 26.8121 28.9751C26.3685 30.7768 25.8709 32.8182 24.3901 35.7803C23.5143 37.5332 20.5243 38.7534 17.572 38.5514C16.2055 38.4607 12.9027 37.8916 11.7264 34.4946C10.3501 32.0808 8.60198 27.6587 9.7782 26.0733C10.4565 25.1572 12.149 25.3203 13.4214 25.6006C13.7296 25.7874 14.1011 27.1849 14.3223 28.0229C14.8509 30.0212 15.4777 32.2635 17.1113 32.1408C17.2123 32.1463 19.6256 32.3457 20.5928 30.7113C21.357 29.4228 20.9509 27.5598 19.3558 25.0315C20.604 23.8323 23.7877 20.3502 22.2815 17.2823C21.8129 16.3248 20.2985 14.993 18.3867 14.993H18.3349C17.2555 15.007 15.8045 15.4644 14.5348 17.3574C13.9678 15.6171 13.2656 12.5978 14.2676 10.3262C14.833 9.04118 15.856 8.17504 17.392 7.68289C18.5348 7.31188 22.3635 6.94729 24.5918 9.01667C26.4074 10.6986 26.8297 13.6277 25.8509 17.7261C25.7602 18.1109 25.9975 18.4938 26.3781 18.5879C26.7659 18.6841 27.1465 18.44 27.2415 18.06C28.3488 13.4248 27.7868 10.0303 25.5667 7.97282C22.6301 5.2535 18.0308 5.98337 16.9585 6.32597C15.0348 6.94454 13.6898 8.09832 12.9583 9.75639C11.2123 13.7133 13.6541 19.1254 13.7608 19.3519C13.8764 19.6063 14.1311 19.7687 14.4093 19.7687C14.6876 19.7687 14.942 19.6063 15.0579 19.3533C15.9302 17.4527 17.068 16.4402 18.3525 16.4235H18.3839C19.5972 16.4235 20.6976 17.2985 20.9972 17.9114C22.099 20.1546 19.1802 23.3354 17.9627 24.3714C17.6866 24.6055 17.6309 25.0086 17.8324 25.3099C19.8162 28.2663 19.6433 29.506 19.3623 29.9816C18.8637 30.8265 17.2544 30.7179 17.1156 30.7179C16.5174 30.7067 16.0104 28.8214 15.7003 27.6555C15.2478 25.9429 14.8552 24.4635 13.764 24.218C11.27 23.6533 9.5414 23.9936 8.63221 25.2236C6.52573 28.0684 10.0755 34.4802 10.4325 35.08C11.4184 37.9582 13.987 39.7404 17.4811 39.9747C17.7356 39.9928 17.9866 40.001 18.2369 39.9997C21.548 39.9997 24.6007 38.5576 25.6702 36.4186C27.2221 33.3117 27.7424 31.189 28.2027 29.3147C28.5932 27.7167 28.9333 26.3359 29.8509 24.66C33.8124 17.4243 34.7413 11.4151 32.6105 6.80141Z" fill="#FFB229"/>
</g>
<defs>
<clipPath id="clip0">
<rect width="40" height="40" fill="white"/>
</clipPath>
</defs>
</svg>
