<svg width="40" height="40" viewBox="0 0 40 40" fill="none" xmlns="http://www.w3.org/2000/svg">
<g clip-path="url(#clip0)">
<path d="M9.74888 25.7522H13.9818V23.3953C13.4328 23.005 12.9188 22.5681 12.4452 22.0893C10.7648 20.3771 9.69426 18.1603 9.39801 15.7795C8.11862 15.4926 7.20705 14.3601 7.19979 13.049C7.19979 11.7454 8.14109 10.6471 9.29153 10.337V9.73451H8.88155C8.47814 9.72172 8.15388 9.39747 8.14109 8.99406V2.65487C8.14109 1.18881 9.3662 1.20746e-06 10.8319 1.20746e-06H29.3617C30.8316 -0.00138154 32.0263 1.18501 32.0349 2.65487V8.99406C32.0307 9.39436 31.7124 9.72034 31.3124 9.73451H30.7075V10.3353C31.9464 10.6451 32.8991 11.7623 32.8991 13.049C32.8991 14.3636 31.8984 15.5009 30.6107 15.7816C30.2221 18.8264 28.5915 21.5753 26.1057 23.3763V25.7522H30.2501C34.3994 25.7522 37.7871 29.1199 37.7871 33.2691V39.2958C37.7812 39.6885 37.4597 40.0028 37.067 40H2.93195C2.53925 40.0028 2.21777 39.6882 2.21189 39.2958V33.2691C2.21189 29.1199 5.59961 25.7522 9.74888 25.7522ZM8.60362 13.049C8.60362 13.5581 8.93755 14.0027 9.29153 14.2429V11.855C8.93755 12.0952 8.60362 12.5398 8.60362 13.049ZM30.619 2.65487C30.611 1.96695 30.05 1.41386 29.3617 1.41593H10.8319C10.1468 1.41593 9.55702 1.96972 9.55702 2.65487V8.31859H30.619V2.65487ZM10.7075 9.73451V13.8803L18.3257 16.1076C19.417 16.4263 20.5771 16.4263 21.6685 16.1076L29.2915 13.8803V9.73451H10.7075ZM31.4929 13.049C31.4929 12.5432 31.1499 12.0803 30.7075 11.8394V14.2585C31.1499 14.0176 31.4929 13.5547 31.4929 13.049ZM26.5496 21.1014C28.0699 19.552 29.0146 17.529 29.2269 15.3688L22.0615 17.4661C20.7151 17.8612 19.2839 17.8612 17.9375 17.4661L10.7721 15.3688C10.9844 17.529 11.9291 19.552 13.4494 21.1014C15.2118 22.9114 17.5379 23.9083 19.9995 23.9083C22.4611 23.9083 24.7872 22.9114 26.5496 21.1014ZM20.0306 25.3243C18.4232 25.327 16.8372 24.9564 15.3977 24.2416V26.0592L20.1634 29.0193L24.6898 26.0689V24.2284C23.1853 24.945 21.6643 25.3243 20.0306 25.3243ZM36.3712 33.2691C36.3612 29.8963 33.6233 27.1671 30.2501 27.1681H25.5675L20.8845 30.242V38.5841H36.3712V33.2691ZM3.62782 38.5841H19.4685V30.252L14.4665 27.1681H9.74888C6.37567 27.1671 3.63784 29.8963 3.62782 33.2691V38.5841Z" fill="#FFB229"/>
<path d="M24.471 14.5171C23.1401 14.5157 22.0612 13.4368 22.0598 12.1059C22.0598 11.7149 22.3768 11.3979 22.7678 11.3979C23.1587 11.3979 23.4757 11.7149 23.4757 12.1059C23.4757 12.6556 23.9217 13.1015 24.4713 13.1015C25.0213 13.1015 25.4669 12.6556 25.4669 12.1059C25.4669 11.7149 25.7839 11.3979 26.1748 11.3979C26.5658 11.3979 26.8828 11.7149 26.8828 12.1059C26.8814 13.4372 25.8025 14.516 24.471 14.5171Z" fill="#FFB229"/>
<path d="M15.9544 14.5171C14.6235 14.5157 13.5446 13.4368 13.5432 12.1059C13.5432 11.7149 13.8602 11.3979 14.2512 11.3979C14.6421 11.3979 14.9591 11.7149 14.9591 12.1059C14.9591 12.6556 15.4047 13.1015 15.9547 13.1015C16.5047 13.1015 16.9503 12.6556 16.9503 12.1059C16.9503 11.7149 17.2673 11.3979 17.6582 11.3979C18.0492 11.3979 18.3662 11.7149 18.3662 12.1059C18.3648 13.4372 17.2856 14.516 15.9544 14.5171Z" fill="#FFB229"/>
<path d="M18.8499 4.15898H19.3809V3.53951C19.3809 3.14854 19.6979 2.83154 20.0889 2.83154C20.4798 2.83154 20.7968 3.14854 20.7968 3.53951V4.15898H21.2393C21.6303 4.15898 21.9473 4.47597 21.9473 4.86694C21.9473 5.25791 21.6303 5.57491 21.2393 5.57491H20.7968V5.92889C20.7968 6.31986 20.4798 6.63685 20.0889 6.63685C19.6979 6.63685 19.3809 6.31986 19.3809 5.92889V5.57491H18.8499C18.4589 5.57491 18.1419 5.25791 18.1419 4.86694C18.1419 4.47597 18.4589 4.15898 18.8499 4.15898Z" fill="#FFB229"/>
</g>
<defs>
<clipPath id="clip0">
<rect width="40" height="40" fill="white" transform="matrix(-1 0 0 1 40 0)"/>
</clipPath>
</defs>
</svg>
