<svg width="40" height="40" viewBox="0 0 40 40" fill="none" xmlns="http://www.w3.org/2000/svg">
<path d="M33.5288 11.1763L34.3332 10.3718C35.1869 9.51595 35.1869 8.13067 34.3332 7.27477L34.117 7.05848L39.9992 1.17627L38.8229 0L32.9407 5.87888L32.7252 5.66342C31.8579 4.83789 30.4955 4.83789 29.6282 5.66342L28.8237 6.46785L25.8855 3.52966L8.23559 21.1763L6.47118 19.4119L2.94235 22.9407L7.64745 27.6466L5.2949 30.0033C4.31869 29.0285 2.73729 29.0285 1.76108 30.0033L0 31.7644L8.23559 40L9.99667 38.2389C10.9713 37.2644 10.9715 35.6842 9.99698 34.7096C9.99688 34.7095 9.99678 34.7094 9.99667 34.7093L12.3501 32.3559L17.0552 37.0618L20.5848 33.5322L18.8204 31.7677L36.4703 14.1145L33.5288 11.1763ZM30.8044 6.84302C31.0129 6.64057 31.3446 6.64057 31.5531 6.84302L33.1611 8.45104C33.3667 8.65662 33.3667 8.99 33.1611 9.19557L32.3567 10L30.0042 7.64662L30.8044 6.84302ZM8.82373 37.0585L8.23559 37.6466L2.35338 31.7644L2.94152 31.1763C3.26616 30.8512 3.79295 30.8509 4.118 31.1756C4.11821 31.1759 4.11842 31.1761 4.11863 31.1763L8.82373 35.8822C9.14847 36.2071 9.14847 36.7336 8.82373 37.0585ZM8.82373 33.5288L6.47118 31.1763L8.82373 28.8237L11.1771 31.1763L8.82373 33.5288ZM17.0585 34.7059L5.2949 22.9407L6.47118 21.7677L18.2356 33.5288L17.0585 34.7059ZM17.6499 30.5856L9.41436 22.3501L11.1796 20.5856L15.2966 24.7034L16.4728 23.5272L12.3559 19.4085L14.1203 17.6441L15.8847 19.4094L17.061 18.2331L15.2966 16.4678L17.0618 14.7034L21.1788 18.8212L22.3559 17.6441L18.2323 13.5322L19.9967 11.7669L21.7644 13.5322L22.9415 12.3559L21.1771 10.5881L22.9415 8.82373L27.0593 12.9415L28.2356 11.7652L24.1178 7.64745L25.8855 5.87888L34.1211 14.1145L17.6499 30.5856Z" fill="#FFB229"/>
</svg>
