<svg width="60" height="60" viewBox="0 0 60 60" fill="none" xmlns="http://www.w3.org/2000/svg">
<path d="M39.2359 17.946C39.0093 17.6336 38.7583 17.3398 38.4851 17.0673L35.9989 14.5811V0.999667C35.9989 0.447601 35.5513 0 34.9993 0H25.0026C24.4505 0 24.0029 0.447601 24.0029 0.999667V14.5811L21.5138 17.0673C21.2381 17.3426 20.9847 17.6395 20.756 17.955C18.7681 20.7345 19.0845 24.5446 21.5038 26.958C23.7576 29.2131 27.2499 29.6621 30.0009 28.0506C31.0723 28.6839 32.2952 29.0156 33.5398 29.0103C35.3985 29.0116 37.1814 28.2731 38.4951 26.958C40.9164 24.5411 41.23 20.7258 39.2359 17.946ZM33.5428 27.014C32.4837 27.0201 31.4513 26.6824 30.6007 26.0513C30.4277 25.9215 30.2172 25.8514 30.0009 25.8514C29.786 25.8511 29.5767 25.9202 29.4041 26.0483C28.5536 26.6794 27.5211 27.0171 26.4621 27.011C25.4256 27.0115 24.4144 26.6896 23.5688 26.0901C21.317 24.4933 20.7858 21.3735 22.3825 19.1216C22.5479 18.894 22.7311 18.6796 22.9303 18.4808L25.7094 15.7018C25.8968 15.5143 26.0023 15.2602 26.0023 14.995V1.99933H33.9996V14.995C33.9994 15.2619 34.106 15.5178 34.2955 15.7058L37.0746 18.4848C37.2713 18.6808 37.4521 18.8921 37.6154 19.1166C38.2183 19.9633 38.5422 20.9771 38.542 22.0165C38.5415 24.7771 36.3032 27.0145 33.5428 27.014Z" fill="#FFB229"/>
<path d="M38.4981 33.0419C36.2442 30.7868 32.752 30.3378 30.0009 31.9493C28.9295 31.316 27.7067 30.9844 26.4621 30.9896C24.6033 30.9884 22.8204 31.7269 21.5067 33.0419C19.0854 35.4589 18.7719 39.2741 20.766 42.0539C20.9927 42.3662 21.2437 42.66 21.5167 42.9326L24.0029 45.4188V59.0002C24.0029 59.5523 24.4505 59.9999 25.0026 59.9999H34.9992C35.5513 59.9999 35.9989 59.5523 35.9989 59.0002V45.4188L38.4871 42.9336C38.763 42.6578 39.0166 42.3607 39.2458 42.0449C41.2338 39.2655 40.9174 35.4554 38.4981 33.0419ZM37.6203 40.8773C37.4539 41.1048 37.2705 41.3194 37.0715 41.5191L34.2925 44.2982C34.105 44.4856 33.9996 44.7398 33.9996 45.0049V58.0005H26.0022V45.0049C26.0025 44.7395 25.897 44.4848 25.7093 44.2972L22.9323 41.5201C22.7355 41.3229 22.554 41.1111 22.3894 40.8863C21.7865 40.0395 21.4626 39.0258 21.4629 37.9864C21.4634 35.226 23.7016 32.9885 26.4621 32.989C27.5211 32.9828 28.5535 33.3206 29.4041 33.9516C29.7584 34.2152 30.2434 34.2152 30.5977 33.9516C31.4483 33.3206 32.4807 32.9828 33.5397 32.989C34.576 32.9885 35.5868 33.31 36.4322 33.9091C38.6845 35.5052 39.2164 38.6251 37.6203 40.8773Z" fill="#FFB229"/>
</svg>
