<svg width="40" height="40" viewBox="0 0 40 40" fill="none" xmlns="http://www.w3.org/2000/svg">
<path d="M30 9.22571V8.37696C30 5.65508 29.0637 2.98508 27.3631 0.859456C27.1781 0.630081 26.8581 0.559456 26.595 0.690706L24.095 1.94071C23.9256 2.02508 23.8044 2.18133 23.7644 2.36571C23.7244 2.55008 23.7687 2.74321 23.8862 2.89071C25.2281 4.56758 26.0375 6.62321 26.2119 8.75508C24.0669 8.76321 21.9075 9.22696 19.9994 10.1157C17.7206 9.05445 15.0725 8.60883 12.5344 8.80571C12.7006 6.65571 13.51 4.58133 14.8625 2.89071C14.98 2.74321 15.025 2.55008 14.9844 2.36571C14.9438 2.18133 14.8225 2.02508 14.6537 1.94071L12.1537 0.690706C11.8912 0.559456 11.57 0.629456 11.3856 0.859456C9.68625 2.98508 8.75 5.65508 8.75 8.37696V9.60321C3.87375 11.3282 0.625 15.4507 0.625 20.0001C0.625 21.7876 1.12812 23.552 2.07312 25.1307C1.13375 26.7895 0.625 28.667 0.625 30.6251V31.8751C0.625 32.2207 0.904375 32.5001 1.25 32.5001H3.75C4.09562 32.5001 4.375 32.2207 4.375 31.8751C4.375 30.6657 4.6 29.4938 5.01062 28.3938C6.61625 29.6245 8.535 30.4845 10.625 30.9213V34.3751C10.625 34.7207 10.9044 35.0001 11.25 35.0001H13.75C14.0956 35.0001 14.375 34.7207 14.375 34.3751V31.502C14.375 31.412 14.3844 31.3226 14.3862 31.2326C15.1081 31.202 15.8244 31.1182 16.5294 30.9863C17.1719 33.1351 17.5 35.357 17.5 37.6045V39.3751H18.75V37.6045C18.75 35.2632 18.4131 32.9488 17.7519 30.7095C18.5269 30.4957 19.2794 30.2201 20 29.8845C20.72 30.2195 21.4731 30.4957 22.2481 30.7095C21.5869 32.9488 21.25 35.2632 21.25 37.6045V39.3751H22.5V37.6045C22.5 35.357 22.8281 33.1351 23.47 30.987C24.3819 31.1576 25.3131 31.2501 26.25 31.2501C28.6975 31.2501 31.0406 30.6795 33.0969 29.5976C33.1106 29.8151 33.125 30.0332 33.125 30.252V33.1251C33.125 33.4707 33.4044 33.7501 33.75 33.7501H36.25C36.5956 33.7501 36.875 33.4707 36.875 33.1251V29.002C36.875 28.2707 36.8019 27.5438 36.67 26.8295C38.4113 24.8776 39.375 22.4676 39.375 20.0001C39.375 15.0007 35.5425 10.6382 30 9.22571ZM26.6919 2.04071C28.0225 3.87508 28.75 6.10571 28.75 8.37696V11.8751H27.5V9.62696C27.5 7.16196 26.7319 4.73883 25.3238 2.72446L26.6919 2.04071ZM10 8.37696C10 6.10508 10.7275 3.87508 12.0581 2.04008L13.4263 2.72446C12.0181 4.73883 11.25 7.16196 11.25 9.62696V13.1251H10V8.37696ZM3.14188 31.2501H1.875V30.6251C1.875 27.9707 2.90875 25.4751 4.78562 23.5982L5.74812 22.6357L7.06938 23.297L6.40188 23.9645C4.43687 25.9295 3.29312 28.497 3.14188 31.2501ZM13.125 31.502V33.7501H11.875V30.252C11.875 27.9801 12.6025 25.7501 13.9331 23.9151L15.3013 24.5995C13.8931 26.6138 13.125 29.037 13.125 31.502ZM35.625 32.5001H34.375V30.252C34.375 27.787 33.6069 25.3638 32.1988 23.3495L33.5669 22.6651C34.8975 24.5001 35.625 26.7307 35.625 29.002V32.5001ZM34.2381 21.4845C34.0531 21.2545 33.7331 21.1845 33.47 21.3157L30.97 22.5657C30.8006 22.6501 30.6794 22.8063 30.6394 22.9907C30.5994 23.1751 30.6437 23.3682 30.7612 23.5157C31.8656 24.8957 32.6038 26.5332 32.9306 28.2576C30.9575 29.3945 28.6631 30.0001 26.25 30.0001C24.16 30.0001 22.0944 29.527 20.2756 28.6313C20.1025 28.5457 19.8975 28.5457 19.7238 28.6313C18.1213 29.4207 16.3263 29.8813 14.4925 29.9795C14.7656 28.0826 15.5338 26.2713 16.7381 24.7663C16.8556 24.6188 16.9006 24.4257 16.86 24.2413C16.8194 24.057 16.6981 23.9007 16.5294 23.8163L14.0294 22.5663C13.7663 22.4357 13.4462 22.5051 13.2613 22.7351C11.6863 24.7038 10.7775 27.1407 10.65 29.652C8.7275 29.2157 6.98063 28.3795 5.53375 27.2082C5.99125 26.3501 6.57812 25.5551 7.285 24.8482L8.56625 23.567C8.70875 23.4245 8.77375 23.2232 8.74125 23.0251C8.70875 22.827 8.58313 22.6557 8.40375 22.5663L5.90375 21.3163C5.6625 21.1963 5.3725 21.242 5.1825 21.4338L3.90125 22.7151C3.51313 23.1032 3.16875 23.5213 2.84625 23.9532C2.2125 22.7101 1.875 21.362 1.875 20.0001C1.875 16.112 4.60438 12.5563 8.75 10.9295V13.7501C8.75 14.0957 9.02938 14.3751 9.375 14.3751H11.875C12.2206 14.3751 12.5 14.0957 12.5 13.7501V10.062C12.9137 10.0251 13.3306 10.0001 13.75 10.0001C15.84 10.0001 17.9056 10.4732 19.7244 11.3688C19.8113 11.4113 19.9056 11.4332 20 11.4332C20.0944 11.4332 20.1894 11.412 20.2756 11.3688C22.0931 10.4732 24.1788 10.0113 26.25 10.0063V12.5001C26.25 12.8457 26.5294 13.1251 26.875 13.1251H29.375C29.7206 13.1251 30 12.8457 30 12.5001V10.5151C34.82 11.8645 38.125 15.6695 38.125 20.0001C38.125 21.917 37.4888 23.7376 36.2887 25.3301C35.8431 23.942 35.1569 22.6326 34.2381 21.4845Z" fill="#FFB229"/>
<path d="M23.7242 18.7505H23.4861C22.9317 17.4467 22.1305 16.2467 21.0986 15.2148L20.4423 14.5586L19.5586 15.4423L20.2148 16.0986C22.0917 17.9755 23.1255 20.4711 23.1255 23.1255H24.3755C24.3755 22.0486 24.2192 20.9967 23.9267 19.9905C26.8555 19.9386 29.603 18.7817 31.6923 16.6923L30.7955 15.8211C28.9067 17.7105 26.3955 18.7505 23.7242 18.7505Z" fill="#FFB229"/>
</svg>
