<svg width="40" height="40" viewBox="0 0 40 40" fill="none" xmlns="http://www.w3.org/2000/svg">
<g clip-path="url(#clip0)">
<path d="M39.9515 22.2981C39.656 20.2503 38.0472 18.6416 35.9994 18.346V17.134C35.9994 13.79 33.4575 11.0674 30.3329 11.0674C27.2982 11.0674 24.7576 13.7074 24.6663 16.9527H24.7049L24.6663 16.9593V30.0971C24.6663 34.2971 21.5263 37.7077 17.6664 37.7077C13.8065 37.7077 10.6665 34.2924 10.6665 30.0971V28.9592C11.6332 28.9592 12.6665 28.2585 12.6665 26.2925V24.6159C16.9451 23.5219 19.9997 19.848 19.9997 15.6827V14.2927H18.6664L18.6384 5.61616C18.6287 4.0101 17.4762 2.63879 15.8958 2.35288C15.5548 1.30848 14.4318 0.73815 13.3873 1.07915C12.3429 1.42006 11.7726 2.54312 12.1136 3.58761C12.4545 4.63201 13.5775 5.20234 14.622 4.86134C15.1813 4.67876 15.631 4.25802 15.8504 3.71219C16.7045 3.95519 17.2961 4.73218 17.3031 5.62016L17.3331 14.2927H15.9998V15.702C15.9466 18.0209 14.3919 20.036 12.1625 20.6759C10.9696 21.0544 9.68877 21.0544 8.49587 20.6759C6.26899 20.0339 4.71784 18.0191 4.66659 15.702V14.2927H2.66663V5.62616C2.67046 4.72509 3.27645 3.93777 4.1466 3.70352C4.55235 4.73643 5.71858 5.24475 6.75148 4.83901C7.78438 4.43326 8.2927 3.26695 7.88696 2.23413C7.48122 1.20131 6.3149 0.692901 5.28208 1.09864C4.72243 1.31856 4.2906 1.77747 4.10527 2.34954C2.50754 2.62254 1.33773 4.00527 1.33331 5.62616V14.2927H0V15.6793C0 19.8493 3.05662 23.5246 7.33322 24.6159V26.2925C7.33322 28.2585 8.36654 28.9592 9.33319 28.9592V30.0971C9.33319 35.0304 13.0711 39.041 17.6664 39.041C22.2617 39.041 25.9996 35.0257 25.9996 30.0971V16.9913C26.0663 14.4614 28.0116 12.4027 30.3329 12.4027C32.7222 12.4027 34.6661 14.5254 34.6661 17.136V18.346C32.1152 18.7141 30.3459 21.0805 30.714 23.6314C31.0822 26.1823 33.4486 27.9517 35.9994 27.5835C38.5503 27.2153 40.3197 24.8489 39.9515 22.2981ZM13.9998 3.62619C13.6316 3.62619 13.3331 3.3277 13.3331 2.95953C13.3331 2.59137 13.6316 2.29288 13.9998 2.29288C14.3679 2.29288 14.6664 2.59137 14.6664 2.95953C14.6664 3.3277 14.3679 3.62619 13.9998 3.62619ZM5.99991 2.29288C6.36807 2.29288 6.66656 2.59137 6.66656 2.95953C6.66656 3.3277 6.36807 3.62619 5.99991 3.62619C5.63175 3.62619 5.33325 3.3277 5.33325 2.95953C5.33325 2.59137 5.63175 2.29288 5.99991 2.29288ZM1.33331 15.6793V15.626H3.33328V15.702C3.38328 18.5996 5.311 21.1283 8.09187 21.9439C9.5491 22.4053 11.1132 22.4053 12.5705 21.9439C15.3527 21.1294 17.2821 18.6006 17.3331 15.702V15.626H18.6664V15.6793C18.6664 19.388 15.8078 22.6512 11.8665 23.4406C10.941 23.6259 9.99301 23.6724 9.05386 23.5786C8.7447 23.5486 8.43737 23.5021 8.13321 23.4392C4.19193 22.6512 1.33331 19.388 1.33331 15.6793ZM9.33319 27.6258C8.7332 27.6258 8.66653 26.6925 8.66653 26.2925V24.8779C8.71986 24.8845 8.77453 24.8872 8.82853 24.8925C8.89519 24.8999 8.96186 24.9052 9.02853 24.9112C9.34385 24.9392 9.66185 24.9579 9.98251 24.9585H10.0158C10.3358 24.9585 10.6532 24.9392 10.9665 24.9112C11.0332 24.9052 11.1038 24.8999 11.1725 24.8925C11.2252 24.8865 11.2798 24.8845 11.3325 24.8779V26.2925C11.3325 26.6925 11.2658 27.6258 10.6658 27.6258H9.33319ZM35.3328 26.2925C33.4919 26.2925 31.9995 24.8001 31.9995 22.9592C31.9995 21.1184 33.4919 19.626 35.3328 19.626C37.1737 19.626 38.6661 21.1184 38.6661 22.9592C38.6639 24.7993 37.1728 26.2904 35.3328 26.2925Z" fill="#FFB229"/>
<path d="M35.333 20.96C34.2284 20.96 33.333 21.8554 33.333 22.9599C33.333 24.0645 34.2284 24.9599 35.333 24.9599C36.4375 24.9599 37.3329 24.0645 37.3329 22.9599C37.3329 21.8554 36.4375 20.96 35.333 20.96ZM35.333 23.6266C34.9648 23.6266 34.6663 23.3281 34.6663 22.9599C34.6663 22.5918 34.9648 22.2933 35.333 22.2933C35.7011 22.2933 35.9996 22.5918 35.9996 22.9599C35.9996 23.3281 35.7011 23.6266 35.333 23.6266Z" fill="#FFB229"/>
</g>
<defs>
<clipPath id="clip0">
<rect width="40" height="40" fill="white"/>
</clipPath>
</defs>
</svg>
