<svg width="40" height="40" viewBox="0 0 40 40" fill="none" xmlns="http://www.w3.org/2000/svg">
<path d="M32.5 9.375C32.5 8.285 31.795 7.36625 30.82 7.02437C31.0912 6.625 31.25 6.14313 31.25 5.625C31.25 4.24625 30.1287 3.125 28.75 3.125H27.5C27.5 1.74625 26.3787 0.625 25 0.625H16.25C13.9256 0.625 11.9719 2.22188 11.4144 4.375H8.125V5.625H11.25V6.875H12.5V5.625C12.5 3.55687 14.1819 1.875 16.25 1.875H25C25.6894 1.875 26.25 2.43562 26.25 3.125V6.875C26.25 7.56437 25.6894 8.125 25 8.125C24.3106 8.125 23.75 7.56437 23.75 6.875V5C23.75 4.655 23.47 4.375 23.125 4.375H18.75V3.125H17.5V5.625C17.5 7.00375 16.3787 8.125 15 8.125V9.375C15.6894 9.375 16.25 9.93563 16.25 10.625V13.125H17.5V10.625C17.5 9.95938 17.2344 9.35688 16.8081 8.90812C17.9644 8.26875 18.75 7.0375 18.75 5.625H20V7.5V11.25V15V16.875C20 18.2537 21.1213 19.375 22.5 19.375H25V21.03C25 23.3344 26.1444 25.4725 28.0612 26.75L28.165 26.8188C28.5312 27.0637 28.75 27.4725 28.75 27.9125C28.75 28.4963 28.3581 29.0156 27.7738 29.1819C25.8756 29.725 23.9113 30 21.9362 30H21.8138C19.8387 30 17.8744 29.725 15.9531 29.1756C15.3919 29.0156 15 28.4963 15 27.9125C15 27.4725 15.2188 27.0637 15.585 26.8194L15.6887 26.7506C17.6056 25.4731 18.75 23.3344 18.75 21.03V13.125H17.5V16.875H16.25C14.1819 16.875 12.5 15.1931 12.5 13.125H11.25C11.25 13.5575 11.3106 13.9744 11.4144 14.375H8.125V15.625H11.9263C12.7925 17.1169 14.4037 18.125 16.25 18.125H17.5V21.03C17.5 22.9156 16.5638 24.6644 14.995 25.71L14.8913 25.7787C14.1769 26.2562 13.75 27.0531 13.75 27.9125C13.75 29.0513 14.515 30.065 15.6325 30.3844C17.6431 30.9588 19.7225 31.25 21.8138 31.25H21.9362C24.0275 31.25 26.1069 30.9587 28.14 30.3775C29.235 30.065 30 29.0513 30 27.9125C30 27.0531 29.5731 26.2563 28.8581 25.7794L28.7544 25.7106C27.1863 24.665 26.25 22.9156 26.25 21.03V19.375H27.5C28.8787 19.375 30 18.2537 30 16.875C30 16.3569 29.8412 15.875 29.57 15.4756C30.545 15.1337 31.25 14.215 31.25 13.125C31.25 12.6069 31.0912 12.125 30.82 11.7256C31.795 11.3837 32.5 10.465 32.5 9.375ZM28.75 4.375C29.4394 4.375 30 4.93563 30 5.625C30 6.31437 29.4394 6.875 28.75 6.875H27.5V4.375H28.75ZM22.5 5.625V6.875H21.25V5.625H22.5ZM27.5 18.125H22.5C21.8106 18.125 21.25 17.5644 21.25 16.875V15.625H27.5C28.1894 15.625 28.75 16.1856 28.75 16.875C28.75 17.5644 28.1894 18.125 27.5 18.125ZM28.75 14.375H27.5H21.25V11.875H28.75C29.4394 11.875 30 12.4356 30 13.125C30 13.8144 29.4394 14.375 28.75 14.375ZM30 10.625H28.75H21.25V8.125H22.8475C23.2812 8.86875 24.0787 9.375 25 9.375C25.9212 9.375 26.7188 8.86875 27.1525 8.125H28.75H30C30.6894 8.125 31.25 8.68563 31.25 9.375C31.25 10.0644 30.6894 10.625 30 10.625Z" fill="#FFB229"/>
<path d="M17.0283 26.8936L16.7227 28.1054L16.8358 28.1336C18.4708 28.5429 20.1539 28.7498 21.837 28.7498H21.9127C23.5964 28.7498 25.2789 28.5429 26.9164 28.1342L27.0277 28.1061L26.722 26.8942L26.612 26.9223C25.0758 27.3048 23.4945 27.4998 21.9133 27.4998H21.8377C20.2564 27.4998 18.6752 27.3048 17.1395 26.9217L17.0283 26.8936Z" fill="#FFB229"/>
<path d="M21.875 38.125C18.4288 38.125 15.625 35.3212 15.625 31.875H14.375C14.375 36.0106 17.7394 39.375 21.875 39.375C26.0106 39.375 29.375 36.0106 29.375 31.875H28.125C28.125 35.3212 25.3212 38.125 21.875 38.125Z" fill="#FFB229"/>
<path d="M18.125 31.875H16.875C16.875 34.6319 19.1181 36.875 21.875 36.875C24.6319 36.875 26.875 34.6319 26.875 31.875H25.625C25.625 33.9431 23.9431 35.625 21.875 35.625C19.8069 35.625 18.125 33.9431 18.125 31.875Z" fill="#FFB229"/>
<path d="M24.375 31.875H23.125C23.125 32.5644 22.5644 33.125 21.875 33.125C21.1856 33.125 20.625 32.5644 20.625 31.875H19.375C19.375 33.2538 20.4962 34.375 21.875 34.375C23.2538 34.375 24.375 33.2538 24.375 31.875Z" fill="#FFB229"/>
</svg>
