<svg width="20" height="22" viewBox="0 0 20 22" fill="none" xmlns="http://www.w3.org/2000/svg">
<path d="M13.7502 0.0957031H6.25024C2.79899 0.0957031 0.000244141 3.12579 0.000244141 6.86231V14.9822C0.000244141 18.7188 2.79899 21.7488 6.25024 21.7488H13.7502C17.2015 21.7488 20.0002 18.7188 20.0002 14.9822V6.86231C20.0002 3.12579 17.2015 0.0957031 13.7502 0.0957031ZM18.1252 14.9822C18.1252 17.5941 16.1627 19.7189 13.7502 19.7189H6.25024C3.83774 19.7189 1.87524 17.5941 1.87524 14.9822V6.86231C1.87524 4.2504 3.83774 2.12568 6.25024 2.12568H13.7502C16.1627 2.12568 18.1252 4.2504 18.1252 6.86231V14.9822Z" fill="white"/>
<path d="M10.0002 5.50879C7.23899 5.50879 5.00024 7.93259 5.00024 10.9221C5.00024 13.9116 7.23899 16.3354 10.0002 16.3354C12.7615 16.3354 15.0002 13.9116 15.0002 10.9221C15.0002 7.93259 12.7615 5.50879 10.0002 5.50879ZM10.0002 14.3054C8.27774 14.3054 6.87524 12.7869 6.87524 10.9221C6.87524 9.05584 8.27774 7.53877 10.0002 7.53877C11.7227 7.53877 13.1252 9.05584 13.1252 10.9221C13.1252 12.7869 11.7227 14.3054 10.0002 14.3054Z" fill="white"/>
<path d="M15.3752 5.82431C15.7432 5.82431 16.0415 5.5014 16.0415 5.10307C16.0415 4.70474 15.7432 4.38184 15.3752 4.38184C15.0073 4.38184 14.709 4.70474 14.709 5.10307C14.709 5.5014 15.0073 5.82431 15.3752 5.82431Z" fill="white"/>
</svg>
