<svg width="20" height="20" viewBox="0 0 20 20" fill="none" xmlns="http://www.w3.org/2000/svg">
<g clip-path="url(#clip0)">
<path d="M19.1718 13.5089C18.5763 12.7946 17.8756 12.1851 17.2126 11.5378C16.6144 10.9544 16.5767 10.6159 17.0575 9.9425C17.5823 9.20755 18.1467 8.50078 18.6762 7.76915C19.1706 7.08539 19.6759 6.4035 19.936 5.58481C20.101 5.06396 19.955 4.8339 19.4209 4.7427C19.3289 4.72674 19.2338 4.72591 19.1401 4.72591L15.9713 4.72218C15.581 4.71638 15.3652 4.88654 15.2272 5.23246C15.0409 5.70005 14.8487 6.16722 14.6267 6.61843C14.1231 7.64147 13.5606 8.63032 12.772 9.46766C12.5981 9.65233 12.4057 9.88571 12.1151 9.78954C11.7516 9.65689 11.6444 9.05791 11.6505 8.85541L11.6473 5.19785C11.5769 4.67534 11.461 4.44238 10.9422 4.34082L7.6505 4.34144C7.2111 4.34144 6.99078 4.51119 6.75616 4.78602C6.62082 4.94478 6.57999 5.04779 6.85814 5.10044C7.40448 5.20407 7.71226 5.55766 7.79393 6.10545C7.92491 6.98072 7.9158 7.85951 7.84035 8.73831C7.81817 8.9949 7.77403 9.25087 7.67226 9.49046C7.51308 9.86706 7.25608 9.94374 6.91845 9.71203C6.61274 9.50228 6.39801 9.20631 6.18785 8.90909C5.39839 7.7936 4.76852 6.59065 4.25492 5.32656C4.10652 4.96136 3.85055 4.74001 3.46359 4.734C2.51288 4.71887 1.56196 4.71638 0.611246 4.73483C0.0392022 4.7456 -0.131375 5.02334 0.101588 5.54191C1.13707 7.84521 2.28966 10.0845 3.79418 12.1244C4.56664 13.1712 5.45352 14.0954 6.59927 14.7504C7.89776 15.4928 9.29554 15.7162 10.7677 15.6474C11.4571 15.6151 11.6641 15.4358 11.6961 14.7487C11.7176 14.2786 11.7709 13.8113 12.0028 13.3889C12.2304 12.9743 12.5751 12.8954 12.9724 13.1532C13.1711 13.2823 13.3386 13.4467 13.4967 13.62C13.8847 14.0444 14.2589 14.4818 14.6616 14.8919C15.1667 15.4059 15.765 15.7096 16.5174 15.6476L19.4298 15.6482C19.8991 15.6176 20.1424 15.0422 19.873 14.5184C19.6837 14.1516 19.4354 13.8249 19.1718 13.5089Z" fill="white"/>
</g>
<defs>
<clipPath id="clip0">
<rect width="20" height="20" fill="white" transform="translate(0.000244141)"/>
</clipPath>
</defs>
</svg>
