<svg width="60" height="60" viewBox="0 0 60 60" fill="none" xmlns="http://www.w3.org/2000/svg">
<path d="M38.6719 17.5781C36.4103 17.5781 34.5703 15.7382 34.5703 13.4766V0H13.5938C10.0398 0 7.14844 2.89137 7.14844 6.44531V53.5547C7.14844 57.1086 10.0398 60 13.5938 60H46.4062C49.9602 60 52.8516 57.1086 52.8516 53.5547V17.5781H38.6719ZM16.7578 42.1875H25.2797C26.2505 42.1875 27.0375 42.9745 27.0375 43.9453C27.0375 44.9161 26.2505 45.7031 25.2797 45.7031H16.7578C15.787 45.7031 15 44.9161 15 43.9453C15 42.9745 15.787 42.1875 16.7578 42.1875ZM15 34.5703C15 33.5995 15.787 32.8125 16.7578 32.8125H42.5391C43.5098 32.8125 44.2969 33.5995 44.2969 34.5703C44.2969 35.5411 43.5098 36.3281 42.5391 36.3281H16.7578C15.787 36.3281 15 35.5411 15 34.5703ZM42.5391 23.4375C43.5098 23.4375 44.2969 24.2245 44.2969 25.1953C44.2969 26.1661 43.5098 26.9531 42.5391 26.9531H16.7578C15.787 26.9531 15 26.1661 15 25.1953C15 24.2245 15.787 23.4375 16.7578 23.4375H42.5391Z" fill="#044D47"/>
<path d="M38.0859 13.4765C38.0859 13.7996 38.3488 14.0625 38.6719 14.0625H52.068C51.7465 13.4688 51.3328 12.9235 50.8358 12.4533L39.5363 1.76318C39.0977 1.34834 38.6093 1.00229 38.0861 0.729004V13.4765H38.0859Z" fill="#87BD3E"/>
</svg>
