<svg width="30" height="30" viewBox="0 0 30 30" fill="none" xmlns="http://www.w3.org/2000/svg">
<path d="M15 30C23.2711 30 30 23.2711 30 15C30 6.729 23.2711 0 15 0C6.729 0 0 6.729 0 15C0 23.2711 6.729 30 15 30ZM8.03775 13.3997H13.3929V8.0445C13.3929 7.15704 14.1125 6.43736 15 6.43736C15.8877 6.43736 16.6071 7.15704 16.6071 8.0445V15.0069C16.6071 15.8943 15.8877 16.614 15 16.614H8.03775C7.15018 16.614 6.43061 15.8943 6.43061 15.0069C6.43061 14.1192 7.15018 13.3997 8.03775 13.3997Z" fill="#FFB229"/>
</svg>
