<svg width="30" height="30" viewBox="0 0 30 30" fill="none" xmlns="http://www.w3.org/2000/svg">
<g clip-path="url(#clip0)">
<path d="M2.636 3.57422H27.3626C27.7684 3.57422 28.1484 3.674 28.4922 3.83848L15.0579 17.2728L12.0468 14.379C12.0468 14.379 12.0466 14.3787 12.0465 14.3786C12.0464 14.3785 12.0462 14.3784 12.0462 14.3784L1.50596 3.83871C1.84978 3.67412 2.23 3.57422 2.636 3.57422Z" fill="#FFB229"/>
<path d="M0.262711 5.08203L10.1816 15.0004L0.263062 24.919C0.0985899 24.5752 -0.00119591 24.1953 -0.00119591 23.7894V6.21125C-0.00119591 5.80561 0.0983553 5.42568 0.262711 5.08203Z" fill="#FFB229"/>
<path d="M29.7357 5.08105C29.9002 5.42482 30 5.8048 30 6.21068V23.7888C30 24.1945 29.9003 24.5745 29.736 24.9181L19.8171 14.9997L29.7357 5.08105Z" fill="#FFB229"/>
<path d="M11.4265 16.2433L14.438 19.1374C14.6097 19.3091 14.8345 19.3949 15.0594 19.3949C15.2842 19.3949 15.5091 19.3091 15.6807 19.1374L18.575 16.2432L28.4941 26.1616C28.1503 26.3262 27.7701 26.4261 27.3641 26.4261H2.63754C2.23166 26.4261 1.85168 26.3263 1.50792 26.1619L11.4265 16.2433Z" fill="#FFB229"/>
</g>
<defs>
<clipPath id="clip0">
<rect width="30" height="30" fill="white" transform="matrix(-1 0 0 1 30 0)"/>
</clipPath>
</defs>
</svg>
