<svg width="30" height="30" viewBox="0 0 30 30" fill="none" xmlns="http://www.w3.org/2000/svg">
<g clip-path="url(#clip0)">
<path d="M22.8077 19.8452C21.8276 18.8776 20.604 18.8776 19.6301 19.8452C18.8872 20.5819 18.1443 21.3185 17.4139 22.0677C17.2142 22.2737 17.0456 22.3174 16.8022 22.18C16.3215 21.9178 15.8096 21.7056 15.3476 21.4184C13.1939 20.0637 11.3897 18.322 9.79159 16.3618C8.99877 15.3879 8.29334 14.3454 7.80017 13.1718C7.70028 12.9346 7.71901 12.7785 7.91253 12.585C8.65542 11.8671 9.37957 11.1304 10.11 10.3938C11.1275 9.36997 11.1275 8.17137 10.1037 7.14132C9.52316 6.5545 8.94258 5.98017 8.36201 5.39336C7.76271 4.79406 7.16965 4.18851 6.56411 3.59546C5.584 2.64032 4.36043 2.64032 3.38657 3.6017C2.63744 4.33834 1.91953 5.09371 1.15792 5.81786C0.452489 6.48583 0.0966536 7.30363 0.021741 8.25877C-0.0968706 9.8132 0.283935 11.2802 0.820809 12.7098C1.91953 15.6689 3.59258 18.2971 5.62146 20.7067C8.36201 23.9654 11.6332 26.5437 15.46 28.404C17.183 29.2405 18.9684 29.8835 20.9099 29.9897C22.2458 30.0646 23.407 29.7275 24.3371 28.6849C24.9739 27.9733 25.6918 27.324 26.366 26.6436C27.3648 25.6322 27.3711 24.4087 26.3785 23.4098C25.1924 22.2175 24 21.0314 22.8077 19.8452Z" fill="#FFB229"/>
<path d="M21.6148 14.8703L23.9183 14.477C23.5562 12.3607 22.5574 10.4442 21.0404 8.921C19.436 7.31662 17.4072 6.3053 15.1723 5.99316L14.8477 8.30921C16.5769 8.55268 18.1501 9.33302 19.3924 10.5753C20.566 11.7489 21.3338 13.2347 21.6148 14.8703Z" fill="#FFB229"/>
<path d="M25.2176 4.85683C22.5582 2.19744 19.1933 0.518146 15.4789 0L15.1543 2.31605C18.3631 2.76552 21.2722 4.22008 23.5695 6.51115C25.7482 8.68986 27.1778 11.4429 27.6959 14.4706L29.9995 14.0773C29.3939 10.5689 27.7396 7.38513 25.2176 4.85683Z" fill="#FFB229"/>
</g>
<defs>
<clipPath id="clip0">
<rect width="30" height="30" fill="white"/>
</clipPath>
</defs>
</svg>
